<svg xmlns="http://www.w3.org/2000/svg" viewBox="0 0 367.95 118.85"><g fill="#FFF" stroke="#FFF" stroke-miterlimit="10"><path d="M131.88 55.3c1.86-1.89 4.35-2.18 7.04-2.51 3.04-.38 6.15-1.34 8.89-2.72 3.65-1.85 7.03-4.27 10.43-6.59 1.96-1.34 5.19-.98 7.18 1.52 2.39 3 5.84 4.11 9.1 5.33 3.5 1.32 7.32 1.75 10.95 2.75.92.25 1.63 1.21 2.46 1.82 2.18 1.6 2.87 1.41 3.9-1.1.39-.95.68-1.95 1.07-2.9.77-1.87 4.12-3.81 6.41-3.22 3.38.86 6.96.9 9.95 3.51 1.73 1.52 1.23 2.85.78 4.04-1.54 4.07-3.44 8-5.15 12-1.4 3.29-2.75 6.6-4.09 9.91-.48 1.18-.85 2.41-1.32 3.61-2.16 5.6-4.41 11.16-6.47 16.79-.93 2.53-1.5 5.2-2.3 8.04 4.09.29 6.83-1.87 9.59-3.85 1.88-1.35 3.65-2.84 5.44-4.31 1.65-1.35 2.86-.24 3.92.79 1.02 1 .6 1.64-.55 2.64-1.77 1.53-2.82 3.87-4.5 5.52-1.74 1.71-3.78 3.15-5.85 4.45-2.9 1.82-5.83 3.69-8.98 5.01-4.37 1.84-9.02 3.38-13.81 2.47-1.89-.36-3.5-2.22-5.61-3.64-.92.5-2.45 1.2-3.86 2.1-3.88 2.5-7.97 2.59-11.69-.11-4.78-3.48-10.11-5.52-15.87-6.54-.73-.13-1.5-.15-2.24-.06-.85.1-2.18.79-2.43.49-.85-1.02-1.84-2.35-1.85-3.57-.06-4.92-1.5-9.49-3.18-13.99-.57-1.52-1.63-2.9-2.66-4.19-1.45-1.83-3.16-3.45-4.61-5.28-1.35-1.72-.19-3.26.75-4.68 1.66-2.51 3.27-5.07 5.15-7.41 3.16-3.92 3.64-8.65 4.35-13.32.13-.9-.21-1.86-.34-2.8zm26.24 56.54c.72-4.39-.17-5.8-2.75-7.05-2.22-1.08-4.65-1.76-7.03-2.47-3.4-1.02-5.57-.09-7.07 2.64 2.8.97 5.68 1.85 8.45 2.98 2.8 1.14 5.49 2.54 8.4 3.9zm-27.74-27.71c2.59 5.72 6.23 10.78 6.71 17.81 1.44-2.44 4.09-3.39 3.58-6.1-.43-2.28-.97-4.66-2.06-6.68-2.89-5.39-1.75-5.59-8.23-5.03zm10.91-26.85c1.72 3.87 3.86 4.98 7.13 3.62 2.15-.89 4.2-2 6.34-2.91 3.62-1.52 4.46-3.48 3.04-7.34-4.72 3.97-10.36 5.66-16.51 6.63zm-10.42 21.1c4.65.55 4.93.5 7.02-3.52 1.02-1.95 1.61-4.12 2.45-6.17 1.21-2.94-.1-5.55-2.69-6.32-2.26 5.36-4.5 10.64-6.78 16.01zm33.06-27.96c-.26 2.89-.98 5.55 1.92 7.06 2.65 1.38 5.29 2.85 8.09 3.8 3.17 1.08 5.93-1.16 5.61-4.03-5.61-1.07-11.02-2.5-15.62-6.83zm.18 61.41c1.63-.95 3.15-2.24 4.9-2.78 3.34-1.04 3.86-2.23 4.11-6.38-5.24.94-11.28 4.15-9.01 9.16zm-14.13-45.91c.9 2.82 3.13 4.47 5.23 3.8 3.15-1.01 3.85-2.84 2.7-6.87-2.64 1.02-5.28 2.05-7.93 3.07zm22.57 30.68c-2.53-1.79-3.93-5.52-7.54-2.54-2.26 1.86-.96 4.18-1.23 6.45 3-1.34 5.73-2.56 8.77-3.91zm-.49-30.52c-2.76-1.06-5.37-2.07-7.96-3.07-1.06 3.74-.55 5.41 2.1 6.62 1.99.92 3.98-.29 5.86-3.55zm4.17 4.16c-2.9 1.31-4.52 3.71-3.73 5.62 1.15 2.81 3.2 3.46 6.59 2.21-.96-2.61-1.91-5.22-2.86-7.83zm2.65 13.92c-4.61-.48-5.77.16-6.47 3.32-.42 1.88 1.13 3.7 3.94 4.58.82-2.59 1.65-5.17 2.53-7.9zm6.13-22c-4.05 2.34-5.69 1.33-2.87 9.8 3.08.2 3.9-2.51 2.87-9.8zM142.2 83.95c1.25 2.97 2.38 5.66 3.51 8.36 1.2-.97 2.47-1.87 3.56-2.95.31-.31.3-1.18.14-1.69-.25-.77-.65-1.56-1.2-2.14-.61-.64-1.4-1.35-2.21-1.51-1.28-.26-2.63-.07-3.8-.07zm15.83 16c.89-4.26.39-5.88-3.77-7.09-1.11-.32-3.05 2.18-4.74 3.49 3.11 1.32 5.75 2.44 8.51 3.6zm-15.6-21.71c3.76.9 6.47.11 6.98-3.21.23-1.5-2.15-3.41-3.36-5.16-1.37 3.16-2.51 5.8-3.62 8.37zM257.2 96.57c-1.36 1.58-2.55 2.85-3.6 4.22-3.94 5.1-8.94 8.84-14.35 12.29-4.86 3.09-9.91 5.16-15.62 5.34-4.97.15-9.39-4.35-9.4-9.25-.01-3.33.72-6.34 2.22-9.48 2.3-4.83 3.51-10.17 5.34-15.24 1.21-3.35 2.82-6.55 4.01-9.91 1.01-2.87 1.93-5.82 2.42-8.82.35-2.11-.81-2.73-2.71-1.64-2.02 1.16-3.96 2.47-5.83 3.86-2.21 1.64-4.3 3.44-6.46 5.19-2.28-1.35-2.66-3.07-.95-5.11 1.8-2.14 3.66-4.22 5.5-6.31 3.94-4.48 9.17-6.73 14.57-8.94 3.15-1.29 6.27-1.9 9.56-2.34 5.32-.72 9.25 6.81 7.48 11.15-1.52 3.71-2.29 7.73-3.61 11.54-1.11 3.21-2.58 6.3-3.77 9.48-1.61 4.28-3.14 8.58-4.65 12.89-.91 2.59-1.89 5.18-2.49 7.85-.23 1.03.16 2.68.89 3.31.91.78 1.97-.32 3.05-.88 4.06-2.06 6.91-5.15 9.73-8.62 2.87-3.53 5.18-7.34 7.66-11.09 3.57-5.41 4.68-11.63 6.84-17.52 1.67-4.55 1.91-9.64 5.2-13.69 3.1-3.82 10.52-5.77 14.66-3.33 3.58 2.1 4.96 6.11 3.24 9.93-2.39 5.32-4.88 10.6-7.38 15.87-2.3 4.85-4.55 9.71-5.09 15.15-.27 2.78-.73 5.55-.83 8.33-.19 5.1 4.18 5.53 7.31 4.17 4.11-1.79 6.72-5.28 9.46-8.64 3.66-4.49 4.69-10.06 6.86-15.17 2.63-6.19 2.49-12.48 2.13-18.81-.15-2.75-.29-5.24 1.21-7.59 2.94-4.59 9.24-5.62 13.33-2.96 1.84 1.2 3.2 4.15 3.53 6.49 1.2 8.42-.59 16.53-4.96 23.73-3.4 5.6-7.66 10.69-11.68 15.9-3.93 5.09-8.91 9.11-14.34 12.41-5.13 3.12-10.26 6.19-16.45 7.44-4.59.93-8.27.63-11.77-2.38-2.35-2.01-3.21-4.83-2.83-7.52.48-3.41 1.94-6.69 2.95-10.03.08-.2-.11-.46-.38-1.27zM13.5 5.16c2.45-.39 4.65-1.29 5.61 2.29.27 1 3.03 1.52 4.72 1.88 1.52.32 3.15.13 4.73.13 21.08 0 42.15-.02 63.23.02 4.28.01 8.23-.35 11.24-4.07.65-.8 2.75-.43 4.81-.68-.67 2.19-1.1 3.79-1.64 5.35-1.3 3.8-2.68 7.57-3.96 11.37-1.28 3.83-2.36 7.74-3.73 11.54-.72 2-2.43 2.8-4.56 2.39-2-.38-1.84-1.89-1.89-3.45-.1-3.03-.52-6.05-.6-9.08-.08-3.23-2.82-3.84-4.85-4.8-1.76-.84-3.95-.96-5.97-1.04-3.74-.15-7.51.13-11.24-.11-2.28-.14-3.39.87-3.97 2.75-1.12 3.65-2.07 7.35-3.18 11-1.24 4.05-2.61 8.06-3.86 12.11-.93 3-1.73 6.04-2.66 9.04-.44 1.42-1.09 2.76-1.54 4.18-1.62 5.15-3.23 10.31-4.78 15.49-1.93 6.44-3.76 12.92-5.72 19.35-.96 3.13-2.12 6.19-3.21 9.28-1.99 5.62.74 9.61 6.64 9.91 1.96.1 3.89.63 6.12 1.01 0 .84.04 1.65-.01 2.46-.12 1.98-.89 3.11-3.18 3.02-9.22-.35-18.44-.74-27.67-.79-6.3-.03-12.61.53-18.91.73-3.07.1-4.12-1.42-3.15-4.38.13-.38.55-.86.92-.94 2.09-.44 4.2-.98 6.32-1.1 6.25-.38 8.08-2.43 10.12-7.25.87-2.06 1.37-4.28 2.1-6.4 1.7-4.97 3.51-9.89 5.13-14.88.93-2.86 1.52-5.82 2.37-8.7.41-1.41 1.16-2.72 1.58-4.13 1.69-5.65 3.24-11.33 4.97-16.96 1.09-3.57 2.42-7.06 3.62-10.59.93-2.75 1.81-5.52 2.73-8.28.56-1.71 1.15-3.41 1.71-5.12.88-2.68 1.84-5.33 2.58-8.05.41-1.5-.39-2.62-2-2.63-5.25-.05-10.57-.52-15.72.2-4.88.68-8.68 4.04-11.94 7.71-1.7 1.92-3.22 4-4.81 6.01-.24.3-.54.59-.69.93-1.13 2.61-3.57 3.76-5.99 2.52-.65-.33-1.36-1.8-1.12-2.38 1.34-3.36 3-6.6 4.47-9.91 2.19-4.91 4.33-9.85 6.45-14.8.27-.62.25-1.33.38-2.15zM322.15 118.85c-2.24-.65-5.01-1.22-7.58-2.27-2.16-.89-3.09-3.04-2.72-5.27.56-3.35 1.44-6.65 2.32-9.94.77-2.87 1.68-5.7 2.62-8.51.85-2.53 1.84-5.02 2.74-7.54 1.24-3.48 2.45-6.98 3.68-10.47.93-2.64 1.9-5.27 2.8-7.93 1.27-3.74 2.47-7.5 3.74-11.25.88-2.61 1.85-5.19 2.73-7.8 1.27-3.72 2.45-7.48 3.76-11.19 1.3-3.69 2.77-7.32 4.04-11.02.9-2.61 1.65-5.28 2.38-7.95.94-3.42-1.74-6.15-4.39-7.35-1.12-.5-2.6-1.68-2.67-2.63-.08-1.22.51-2.68 2.65-2.98 4.82-.68 9.55-2 14.35-2.87 4.2-.76 8.42-1.39 12.66-1.86 2.43-.27 3.23.91 2.33 3.09-.98 2.39-2.25 4.67-3.13 7.1-1.18 3.27-2.03 6.65-3.14 9.95-1.21 3.62-2.57 7.18-3.84 10.78-.91 2.57-1.75 5.16-2.66 7.72-1.44 4.03-2.96 8.03-4.35 12.07-1.08 3.15-1.99 6.35-3.03 9.51-1.26 3.84-2.59 7.67-3.88 11.51-1.25 3.73-2.46 7.47-3.73 11.19-.89 2.62-1.91 5.19-2.78 7.82-1.57 4.76-3.13 9.53-4.52 14.35-.21.74.41 2.41.89 2.51.96.2 2.35-.07 3.08-.71 4.29-3.72 8.53-7.5 12.58-11.47 1.26-1.23 2.45-2.31 3.92-1.2 1.42 1.07 1.1 2.61.02 4.12-2.37 3.31-4.04 7.29-6.92 10.02-4.8 4.56-10.12 8.7-17.27 9.19-2.02.16-4.02.76-6.68 1.28z"/><path d="M81.69 62.43c-3.95.08-6.43 1.78-8.78 3.52-2 1.49-3.62 3.47-5.57 5.04-1.55 1.25-3.45.3-3-1.6.53-2.23 1.74-4.4 3.04-6.33 1.09-1.63 2.59-3.08 4.17-4.26 2.76-2.08 5.71-3.91 8.61-5.8 2.7-1.77 5.71-2.45 8.91-2.54 7.88-.22 10.08 5.84 8.12 11.97-.4 1.24-.62 2.54-1.06 3.77-1.52 4.27-3.14 8.5-4.63 12.78-.3.86-.17 1.87.26 2.94 2.35-3.93 4.58-7.94 7.08-11.77 2.51-3.85 5.08-7.71 8.04-11.22 1.96-2.33 4.68-4.01 6.99-6.05 2.11-1.86 4.56-2.38 7.29-2.43 3.68-.06 5.99 3.19 6.63 6.21.12.56.02 1.17.1 1.74.31 2.18-.38 3.62-2.22 5.14-3.43 2.85-6.37 6.29-9.58 9.42-.45.44-1.3.47-1.97.69-.5-2.3-.84-4.41-1.44-6.44-.27-.92-.9-2.03-1.68-2.41-.51-.24-1.83.49-2.35 1.13-2.19 2.7-4.44 5.41-6.26 8.36-2.48 4.02-4.72 8.21-6.84 12.44-2.24 4.45-4.29 9.01-6.32 13.56-2.24 5.02-4.07 10.25-6.68 15.06-.84 1.55-3.52 2.75-5.46 2.9-3.04.24-6.19-.4-9.25-.96-1.72-.31-3.03-3.06-2.43-4.74 1.25-3.48 2.73-6.88 3.94-10.38 1.22-3.49 2.18-7.07 3.34-10.59 1.22-3.7 2.56-7.36 3.8-11.06 1.29-3.83 2.58-7.66 3.74-11.53.61-1.97.92-4.05 1.46-6.56z"/></g></svg>